<?xml version="1.0" encoding="UTF-8" standalone="no"?>
<svg width="24px" height="24px" viewBox="0 0 24 24" version="1.1" xmlns="http://www.w3.org/2000/svg" xmlns:xlink="http://www.w3.org/1999/xlink" xmlns:sketch="http://www.bohemiancoding.com/sketch/ns">
    <!-- Generator: Sketch 3.4.4 (17249) - http://www.bohemiancoding.com/sketch -->
    <title>Rectangle 30 + Fill 38</title>
    <desc>Created with Sketch.</desc>
    <defs></defs>
    <g id="Page-1" stroke="none" stroke-width="1" fill="none" fill-rule="evenodd" sketch:type="MSPage">
        <g id="Homepage_1" sketch:type="MSArtboardGroup" transform="translate(-48.000000, -919.000000)">
            <g id="Rectangle-123-+-Group-Copy" sketch:type="MSLayerGroup" transform="translate(0.000000, 802.000000)">
                <g id="Group" transform="translate(48.000000, 48.000000)" sketch:type="MSShapeGroup">
                    <g id="Group-Copy-+-Trucks-for-every-nee-+-Group-+-2014---2015---Resfeb-+-c-+-Oval-23" transform="translate(0.000000, 5.000000)">
                        <g id="Group" transform="translate(0.000000, 64.000000)">
                            <g id="Rectangle-30-+-Fill-38">
                                <rect id="Rectangle-30" fill="#777777" x="0" y="0" width="24" height="24" rx="2"></rect>
                                <path d="M14.8563807,12.0500195 L14.7482795,9.99484018 C14.7482795,9.00181775 15.0097335,8.29098966 16.4087639,8.29098966 L18.5902708,8.29098966 L18.5902708,5.3188358 C18.2816796,5.27484114 17.6330725,5.14285714 16.4012219,5.14285714 C13.8281625,5.14285714 11.6460272,6.89007383 11.6460272,9.82514648 L11.7139046,12.0500195 L8.57142857,12.0500195 L8.57142857,15.1924956 L11.7139046,15.1924956 L11.7139046,23.9914286 L14.8563807,23.9914286 L14.8563807,15.1924956 L17.9988568,15.1924956 L18.627352,12.0500195 L14.8563807,12.0500195" id="Fill-38" fill="#181818"></path>
                            </g>
                        </g>
                    </g>
                </g>
            </g>
        </g>
    </g>
</svg>