<?xml version="1.0" encoding="UTF-8" standalone="no"?>
<svg width="76px" height="24px" viewBox="0 0 76 24" version="1.1" xmlns="http://www.w3.org/2000/svg" xmlns:xlink="http://www.w3.org/1999/xlink" xmlns:sketch="http://www.bohemiancoding.com/sketch/ns">
    <!-- Generator: Sketch 3.4.4 (17249) - http://www.bohemiancoding.com/sketch -->
    <title>Google Play</title>
    <desc>Created with Sketch.</desc>
    <defs></defs>
    <g id="Page-1" stroke="none" stroke-width="1" fill="none" fill-rule="evenodd" sketch:type="MSPage">
        <g id="Homepage_1" sketch:type="MSArtboardGroup" transform="translate(-174.000000, -919.000000)">
            <g id="Rectangle-123-+-Group-Copy" sketch:type="MSLayerGroup" transform="translate(0.000000, 802.000000)">
                <g id="Group" transform="translate(48.000000, 48.000000)" sketch:type="MSShapeGroup">
                    <g id="Group-Copy-+-Trucks-for-every-nee-+-Group-+-2014---2015---Resfeb-+-c-+-Oval-23" transform="translate(0.000000, 5.000000)">
                        <g id="Group" transform="translate(0.000000, 64.000000)">
                            <g id="Google-Play" transform="translate(126.000000, 0.000000)">
                                <rect id="btn" fill="#777777" x="0" y="0" width="75.2727273" height="24" rx="2"></rect>
                                <g id="icon-+-Google-play-+-Get-it-on" transform="translate(3.545455, 3.272727)">
                                    <g id="Triangle-1-+-Line-+-Line" transform="translate(0.818182, 0.000000)" stroke="#181818" stroke-width="0.5">
                                        <path d="M1.29613745,15.7166123 C0.580300501,16.1322595 0,15.803198 0,14.9786288 L0,1.49057938 C0,0.667355118 0.573508826,0.333005125 1.29613745,0.752595936 L12.8856807,7.48200817 C13.6015177,7.89765543 13.6083094,8.56760923 12.8856807,8.98720004 L1.29613745,15.7166123 Z" id="Triangle-1" fill="#777777"></path>
                                        <path d="M0.436363636,15.4909091 L10.2891474,6.18006082" id="Line" stroke-linecap="square"></path>
                                        <path d="M0.327272727,0.872727273 L10.3636364,10.3636364" id="Line" stroke-linecap="square"></path>
                                    </g>
                                    <g id="google-play" transform="translate(18.818182, 6.545455)" fill="#181818">
                                        <path d="M46.0151865,9.27272727 L49.0909091,2.18181818 L48.089167,2.18181818 L46.6665268,5.71719284 L46.646418,5.71719284 L45.1837914,2.18181818 L44.1818182,2.18181818 L46.2056423,6.79191708 L45.0636008,9.27272727 L46.0151865,9.27272727" id="Fill-3"></path>
                                        <path d="M41.7272727,2.18181818 C40.49632,2.18181818 39.9056658,2.916516 39.73572,3.363106 L40.576213,3.720378 C40.7463897,3.2637111 41.2368312,3.01568188 41.7473614,3.01568188 C42.4379973,3.01568188 43.0284205,3.46227188 43.0284205,4.1969697 L43.0284205,4.33598515 C42.8381551,4.22674236 42.3578734,4.03802946 41.6972551,4.03802946 C40.5461954,4.03802946 39.5454545,4.63371182 39.5454545,5.73552952 C39.5454545,6.74825824 40.3760186,7.36363636 41.3769904,7.36363636 C42.2177142,7.36363636 42.7180846,6.93674212 42.9882431,6.52977267 L43.0284205,6.52977267 L43.0284205,7.20469613 L43.9090909,7.20469613 L43.9090909,4.26636291 C43.9090909,2.89659121 42.9282079,2.18181818 41.7272727,2.18181818 L41.7272727,2.18181818 Z M41.5270784,6.52977267 C41.0467967,6.52977267 40.5062489,6.27166655 40.5062489,5.7554543 C40.5062489,5.30863528 40.8865488,4.79265206 41.857503,4.79265206 C42.6379607,4.79265206 43.0284205,5.11007449 43.0284205,5.11007449 C43.0284205,5.90431764 42.2576607,6.52977267 41.5270784,6.52977267 L41.5270784,6.52977267 Z" id="Fill-2"></path>
                                        <path d="M38.1818182,0.272727273 L39,0.272727273 L39,7.36363636 L38.1818182,7.36363636 L38.1818182,0.272727273 Z" id="Fill-1"></path>
                                        <path d="M35.1446452,0.272727273 L32.7272727,0.272727273 L32.7272727,7.36363636 L33.6387298,7.36363636 L33.6387298,4.49162968 L35.1446452,4.49162968 C36.3232771,4.49162968 37.3636364,3.620203 37.3636364,2.38229272 C37.3636364,1.14438244 36.3232771,0.272727273 35.1446452,0.272727273 L35.1446452,0.272727273 Z M35.1643005,3.620203 L33.6387298,3.620203 L33.6387298,1.14438244 L35.1643005,1.14438244 C35.9765669,1.14438244 36.4322954,1.81771607 36.4322954,2.38229272 C36.4322954,2.94664089 35.9765669,3.620203 35.1643005,3.620203 L35.1643005,3.620203 Z" id="Fill-4"></path>
                                        <path d="M26.3142502,4.94896807 C26.2867202,4.02768369 27.0389755,3.55823511 27.5803973,3.55823511 C28.0025229,3.55823511 28.3601825,3.7659757 28.4794788,4.06381249 L26.3142502,4.94896807 L26.3142502,4.94896807 Z M27.6629871,7.4052748 C28.7731314,7.4052748 29.4152669,6.73689202 29.6813895,6.34873323 L28.8557212,5.80680125 C28.5804219,6.20421804 28.2041796,6.46615183 27.6629871,6.46615183 C27.1215652,6.46615183 26.7361463,6.22228244 26.4886064,5.74357585 L29.7272727,4.42510048 L29.617153,4.15413449 C29.4152669,3.62146051 28.8006613,2.63695073 27.5436908,2.63695073 C26.2958969,2.63695073 25.2591658,3.60339611 25.2591658,5.02122567 C25.2591658,6.35776543 26.2867202,7.4052748 27.6629871,7.4052748 L27.6629871,7.4052748 Z" id="Fill-5"></path>
                                        <path d="M23.6810128,7.26075961 L24.7452738,7.26075961 L24.7452738,0.252901594 L23.6810128,0.252901594 L23.6810128,7.26075961 Z" id="Path"></path>
                                        <path d="M20.6440031,9.54545455 C21.891797,9.54545455 22.9468814,8.82310437 22.9468814,7.06205121 L22.9468814,2.78146593 L21.9376802,2.78146593 L21.9376802,3.16985052 L21.9009737,3.16985052 C21.662381,2.88985232 21.2035489,2.63695073 20.6256498,2.63695073 C19.4145625,2.63695073 18.3044183,3.68468591 18.3044183,5.03025787 C18.3044183,6.36679763 19.4145625,7.4052748 20.6256498,7.4052748 C21.2035489,7.4052748 21.662381,7.15237321 21.9009737,6.86334282 L21.9376802,6.86334282 L21.9376802,7.20656641 C21.9376802,8.11859278 21.4421416,8.60633157 20.6440031,8.60633157 C19.9924615,8.60633157 19.5889187,8.14568938 19.4237392,7.7575306 L18.4968983,8.13665718 C18.7630209,8.76891117 19.4696224,9.54545455 20.6440031,9.54545455 Z M20.7174163,6.46615183 C19.9832849,6.46615183 19.3686793,5.86099445 19.3686793,5.03025787 C19.3686793,4.19026329 19.9832849,3.57629951 20.7174163,3.57629951 C21.4421416,3.57629951 22.0110934,4.19026329 22.0110934,5.03025787 C22.0110934,5.86099445 21.4421416,6.46615183 20.7174163,6.46615183 Z" id="Path"></path>
                                        <path d="M15.4325882,7.4052748 C16.7721485,7.4052748 17.8639394,6.39389423 17.8639394,5.02122567 C17.8639394,3.63952491 16.7721485,2.63695073 15.4325882,2.63695073 C14.0930279,2.63695073 13.0012369,3.63952491 13.0012369,5.02122567 C13.0012369,6.39389423 14.0930279,7.4052748 15.4325882,7.4052748 Z M15.4325882,6.46615183 C14.6984568,6.46615183 14.0654979,5.87002664 14.0654979,5.02122567 C14.0654979,4.16316669 14.6984568,3.57629951 15.4325882,3.57629951 C16.1664901,3.57629951 16.7996784,4.16316669 16.7996784,5.02122567 C16.7996784,5.87002664 16.1664901,6.46615183 15.4325882,6.46615183 Z" id="Path"></path>
                                        <path d="M10.1294068,7.4052748 C11.4689671,7.4052748 12.5607581,6.39389423 12.5607581,5.02122567 C12.5607581,3.63952491 11.4689671,2.63695073 10.1294068,2.63695073 C8.78984648,2.63695073 7.69782609,3.63952491 7.69782609,5.02122567 C7.69782609,6.39389423 8.78984648,7.4052748 10.1294068,7.4052748 Z M10.1294068,6.46615183 C9.39527543,6.46615183 8.76231655,5.87002664 8.76231655,5.02122567 C8.76231655,4.16316669 9.39527543,3.57629951 10.1294068,3.57629951 C10.8633087,3.57629951 11.496497,4.16316669 11.496497,5.02122567 C11.496497,5.87002664 10.8633087,6.46615183 10.1294068,6.46615183 Z" id="Path"></path>
                                        <path d="M3.8167948,7.4052748 C4.93634511,7.4052748 5.78036676,7.04398681 6.44085556,6.36679763 C7.11992706,5.69841485 7.33098983,4.75929188 7.33098983,4.00058709 C7.33098983,3.7659757 7.31263654,3.54920291 7.27592998,3.36855891 L3.8167948,3.36855891 L3.8167948,4.37993948 L6.27567601,4.37993948 C6.20226287,4.94896807 6.00978281,5.36422346 5.71613026,5.65325385 C5.35824123,6.00550964 4.79846607,6.39389423 3.8167948,6.39389423 C2.30287829,6.39389423 1.1193209,5.19283747 1.1193209,3.7027503 C1.1193209,2.21266314 2.30287829,1.01160638 3.8167948,1.01160638 C4.63351593,1.01160638 5.22976824,1.32750756 5.67024705,1.73395656 L6.39497235,1.02063858 C5.78036676,0.44257779 4.96364562,0 3.8167948,0 C1.74333255,0 0,1.66169896 0,3.7027503 C0,5.74357585 1.74333255,7.4052748 3.8167948,7.4052748 L3.8167948,7.4052748 Z" id="Path"></path>
                                    </g>
                                    <path d="M21.538638,3.90639262 C21.5059674,3.94900647 21.4605133,3.99623611 21.4022744,4.04808296 C21.3440354,4.09992981 21.2691072,4.14822478 21.1774874,4.19296932 C21.0858677,4.23771386 20.9757835,4.27535553 20.8472318,4.30589546 C20.71868,4.33643538 20.5677582,4.35170512 20.3944619,4.35170512 C20.1998586,4.35170512 20.0212382,4.31832477 19.8585954,4.25156307 C19.6959525,4.18480137 19.5563943,4.08821143 19.4399164,3.96179034 C19.3234386,3.83536926 19.2328855,3.67983104 19.1682545,3.49517103 C19.1036235,3.31051101 19.0713085,3.09957562 19.0713085,2.86235853 L19.0713085,2.65781307 C19.0713085,2.42201644 19.1004275,2.21143616 19.1586664,2.02606591 C19.2169053,1.84069567 19.3007113,1.68409212 19.4100869,1.55625057 C19.5194624,1.42840902 19.6529838,1.33110886 19.810655,1.26434716 C19.9683263,1.19758547 20.1473018,1.16420512 20.3475869,1.16420512 C20.5365083,1.16420512 20.7012793,1.18870771 20.841905,1.23771364 C20.9825308,1.28671957 21.1011375,1.35525581 21.1977289,1.44332444 C21.2943203,1.53139306 21.3703139,1.63615053 21.4257119,1.7576 C21.4811099,1.87904947 21.5180413,2.01221576 21.5365073,2.15710284 L21.0080982,2.15710284 C20.9953141,2.07613653 20.9740075,2.00156341 20.9441778,1.93338125 C20.9143481,1.86519909 20.8735104,1.80625082 20.8216636,1.75653466 C20.7698167,1.70681851 20.7058969,1.6677564 20.6299022,1.63934716 C20.5539075,1.61093793 20.4633544,1.59673353 20.3582403,1.59673353 C20.2318192,1.59673353 20.1220902,1.62017079 20.0290499,1.66704603 C19.9360097,1.71392126 19.8585957,1.78245751 19.7968056,1.87265682 C19.7350155,1.96285614 19.6888512,2.07365048 19.6583113,2.20504319 C19.6277714,2.33643589 19.6125016,2.48593723 19.6125016,2.65355171 L19.6125016,2.86235853 C19.6125016,3.03281392 19.6309674,3.18373571 19.6678994,3.31512841 C19.7048314,3.44652112 19.7577428,3.55696035 19.8266352,3.64644944 C19.8955276,3.73593852 19.9793335,3.80411966 20.0780556,3.85099489 C20.1767777,3.89787012 20.2886374,3.92130739 20.413638,3.92130739 C20.505968,3.92130739 20.5851576,3.91527052 20.651209,3.90319659 C20.7172605,3.89112267 20.7730128,3.87585294 20.8184675,3.85738694 C20.8639223,3.83892093 20.9012089,3.81867966 20.9303283,3.7966625 C20.9594478,3.77464535 20.9832402,3.75369385 21.0017062,3.73380739 L21.0017062,3.12656307 L20.3625016,3.12656307 L20.3625016,2.71747216 L21.538638,2.71747216 L21.538638,3.90639262 Z M23.9441778,2.9241483 L22.67003,2.9241483 L22.67003,3.87869375 L24.1593766,3.87869375 L24.1593766,4.30909148 L22.1309675,4.30909148 L22.1309675,1.20681875 L24.1444619,1.20681875 L24.1444619,1.64147784 L22.67003,1.64147784 L22.67003,2.49801194 L23.9441778,2.49801194 L23.9441778,2.9241483 Z M26.8397744,1.64147784 L25.8724448,1.64147784 L25.8724448,4.30909148 L25.3376437,4.30909148 L25.3376437,1.64147784 L24.3788369,1.64147784 L24.3788369,1.20681875 L26.8397744,1.20681875 L26.8397744,1.64147784 Z M28.9022744,4.30909148 L28.3653425,4.30909148 L28.3653425,1.20681875 L28.9022744,1.20681875 L28.9022744,4.30909148 Z M31.8063937,1.64147784 L30.8390641,1.64147784 L30.8390641,4.30909148 L30.304263,4.30909148 L30.304263,1.64147784 L29.3454562,1.64147784 L29.3454562,1.20681875 L31.8063937,1.20681875 L31.8063937,1.64147784 Z M35.7758539,2.83892103 C35.7758539,3.07471766 35.7449593,3.28600816 35.6831693,3.47279887 C35.6213792,3.65958957 35.5343772,3.81796867 35.4221607,3.94794091 C35.3099443,4.07791315 35.1750024,4.17769909 35.0173312,4.24730171 C34.8596599,4.31690433 34.6849458,4.35170512 34.4931835,4.35170512 C34.3028416,4.35170512 34.1288377,4.31690433 33.9711664,4.24730171 C33.8134952,4.17769909 33.677488,4.07791315 33.5631408,3.94794091 C33.4487937,3.81796867 33.3600162,3.65958957 33.2968056,3.47279887 C33.2335951,3.28600816 33.2019903,3.07471766 33.2019903,2.83892103 L33.2019903,2.68125057 C33.2019903,2.44545394 33.2335951,2.23380833 33.2968056,2.04630739 C33.3600162,1.85880645 33.4480835,1.69971713 33.5610102,1.56903466 C33.6739369,1.43835219 33.8092338,1.33821115 33.966905,1.26860853 C34.1245763,1.19900591 34.2985802,1.16420512 34.4889221,1.16420512 C34.6806844,1.16420512 34.8557537,1.19900591 35.0141352,1.26860853 C35.1725166,1.33821115 35.3081687,1.43835219 35.4210954,1.56903466 C35.5340221,1.69971713 35.6213792,1.85880645 35.6831693,2.04630739 C35.7449593,2.23380833 35.7758539,2.44545394 35.7758539,2.68125057 L35.7758539,2.83892103 Z M35.2367914,2.67698921 C35.2367914,2.50369289 35.2201012,2.35064044 35.1867204,2.21782728 C35.1533395,2.08501411 35.1046895,1.97386466 35.0407687,1.88437557 C34.9768479,1.79488649 34.8983686,1.72706046 34.8053283,1.68089546 C34.7122881,1.63473046 34.6068204,1.6116483 34.4889221,1.6116483 C34.3738647,1.6116483 34.2701726,1.63473046 34.1778425,1.68089546 C34.0855125,1.72706046 34.0070332,1.79488649 33.9424022,1.88437557 C33.8777712,1.97386466 33.8280558,2.08501411 33.7932545,2.21782728 C33.7584532,2.35064044 33.7410528,2.50369289 33.7410528,2.67698921 L33.7410528,2.83892103 C33.7410528,3.01221735 33.7584532,3.1656249 33.7932545,3.2991483 C33.8280558,3.43267169 33.8781263,3.54453137 33.9434675,3.63473069 C34.0088088,3.72493 34.0879983,3.79311114 34.1810386,3.83927614 C34.2740788,3.88544114 34.3781261,3.9085233 34.4931835,3.9085233 C34.731821,3.9085233 34.9154129,3.81761512 35.0439647,3.63579603 C35.1725165,3.45397694 35.2367914,3.18835459 35.2367914,2.83892103 L35.2367914,2.67698921 Z M38.7737232,4.30909148 L38.2346607,4.30909148 L36.8518482,2.10809716 L36.8518482,4.30909148 L36.3127857,4.30909148 L36.3127857,1.20681875 L36.8518482,1.20681875 L38.2389221,3.4163358 L38.2389221,1.20681875 L38.7737232,1.20681875 L38.7737232,4.30909148 Z" id="GET-IT-ON" fill="#181818"></path>
                                </g>
                            </g>
                        </g>
                    </g>
                </g>
            </g>
        </g>
    </g>
</svg>