<?xml version="1.0" encoding="UTF-8" standalone="no"?>
<svg width="24px" height="24px" viewBox="0 0 24 24" version="1.1" xmlns="http://www.w3.org/2000/svg" xmlns:xlink="http://www.w3.org/1999/xlink" xmlns:sketch="http://www.bohemiancoding.com/sketch/ns">
    <!-- Generator: Sketch 3.4.4 (17249) - http://www.bohemiancoding.com/sketch -->
    <title>Path + Path + Path + Path</title>
    <desc>Created with Sketch.</desc>
    <defs></defs>
    <g id="Page-1" stroke="none" stroke-width="1" fill="none" fill-rule="evenodd" sketch:type="MSPage">
        <g id="Homepage_1" sketch:type="MSArtboardGroup" transform="translate(-132.000000, -919.000000)">
            <g id="Rectangle-123-+-Group-Copy" sketch:type="MSLayerGroup" transform="translate(0.000000, 802.000000)">
                <g id="Group" transform="translate(48.000000, 48.000000)" sketch:type="MSShapeGroup">
                    <g id="Group-Copy-+-Trucks-for-every-nee-+-Group-+-2014---2015---Resfeb-+-c-+-Oval-23" transform="translate(0.000000, 5.000000)">
                        <g id="Group" transform="translate(0.000000, 64.000000)">
                            <g id="Path-+-Path-+-Path-+-Path" transform="translate(84.000000, 0.000000)">
                                <path d="M21.714,0 L2.286,0 C1.02342857,0 0,1.02 0,2.28 L0,21.7114286 C0,22.9714286 1.02342857,24 2.286,24 L21.714,24 C22.9765714,24 24,22.9714286 24,21.7114286 L24,2.28 C24,1.02 22.9765714,0 21.714,0 L21.714,0 Z" id="Path" fill="#777777"></path>
                                <g id="Path-+-Path-+-Path" transform="translate(3.428571, 4.285714)" fill="#181818">
                                    <path d="M2.48485714,0.848571429 C3.47057143,0.848571429 4.07657143,1.58571429 4.09542857,2.54485714 C4.09542857,3.48857143 3.47057143,4.25057143 2.466,4.25057143 L2.44714286,4.25057143 C1.48114286,4.25057143 0.856285714,3.48857143 0.856285714,2.54485714 C0.856285714,1.58571429 1.5,0.848571429 2.48485714,0.848571429 L2.48485714,0.848571429 Z" id="Path"></path>
                                    <path d="M1.026,5.31428571 L4.27885714,5.31428571 L4.27885714,15.4371429 L1.026,15.4371429 L1.026,5.31428571 Z" id="Path"></path>
                                    <path d="M17.1334286,15.4362857 L13.7682857,15.4362857 L13.7682857,10.2085714 C13.7682857,8.89714286 13.3877143,7.99714286 12.1697143,7.99714286 C11.2397143,7.99714286 10.686,8.59714286 10.4425714,9.18 C10.3534286,9.39342857 10.332,9.68571429 10.332,9.97628571 L10.332,15.4362857 L6.85885714,15.4362857 C6.85885714,15.4362857 6.90342857,6.29914286 6.85885714,5.38285714 L10.332,5.38285714 L10.332,6.77142857 C10.7785714,6.10285714 11.5774286,5.15057143 13.3654286,5.15057143 C15.5802857,5.15057143 17.1334286,6.822 17.1334286,9.83142857 L17.1334286,15.4362857 L17.1334286,15.4362857 Z" id="Path"></path>
                                </g>
                            </g>
                        </g>
                    </g>
                </g>
            </g>
        </g>
    </g>
</svg>