<?xml version="1.0" encoding="UTF-8" standalone="no"?>
<svg width="24px" height="24px" viewBox="0 0 24 24" version="1.1" xmlns="http://www.w3.org/2000/svg" xmlns:xlink="http://www.w3.org/1999/xlink" xmlns:sketch="http://www.bohemiancoding.com/sketch/ns">
    <!-- Generator: Sketch 3.4.4 (17249) - http://www.bohemiancoding.com/sketch -->
    <title>Rectangle 30 Copy + Fill 39</title>
    <desc>Created with Sketch.</desc>
    <defs></defs>
    <g id="Page-1" stroke="none" stroke-width="1" fill="none" fill-rule="evenodd" sketch:type="MSPage">
        <g id="Homepage_1" sketch:type="MSArtboardGroup" transform="translate(-90.000000, -919.000000)">
            <g id="Rectangle-123-+-Group-Copy" sketch:type="MSLayerGroup" transform="translate(0.000000, 802.000000)">
                <g id="Group" transform="translate(48.000000, 48.000000)" sketch:type="MSShapeGroup">
                    <g id="Group-Copy-+-Trucks-for-every-nee-+-Group-+-2014---2015---Resfeb-+-c-+-Oval-23" transform="translate(0.000000, 5.000000)">
                        <g id="Group" transform="translate(0.000000, 64.000000)">
                            <g id="Rectangle-30-Copy-+-Fill-39" transform="translate(42.000000, 0.000000)">
                                <rect id="Rectangle-30-Copy" fill="#777777" x="0" y="0" width="24" height="24" rx="2"></rect>
                                <path d="M17.5689935,8.36688312 L18.4797078,6.54545455 L17.1136364,7.45616883 L16.8477078,7.5882224 C16.3049221,6.95527597 15.5089578,6.54545455 14.6091721,6.54545455 C12.9744399,6.54545455 11.6493506,7.64286526 11.6493506,9.2775974 C11.6493506,9.5007224 11.6780381,9.94241883 11.7244846,10.1473295 L11.6493506,10.1883117 C11.6493506,10.1883117 5.72970779,9.2775974 5.27435065,7.00081169 C5.27435065,7.00081169 3.90827922,9.2775974 6.18506494,11.099026 C6.18506494,11.099026 5.27435065,11.5543831 4.81899351,11.099026 C4.81899351,11.099026 4.81899351,12.4650974 7.09577922,13.8311688 C7.09577922,13.8311688 6.18506494,14.286526 5.72970779,13.8311688 C5.72970779,13.8311688 7.55113636,15.6525974 8.46185065,15.6525974 C8.46185065,15.6525974 8.46185065,17.0186688 4.36363636,17.0186688 C4.36363636,17.0186688 9.54514529,20.4338474 14.3814935,16.5633117 C16.8399667,14.5961688 17.4387614,12.1053653 17.4706364,10.2247403 C17.5289221,9.99250812 17.5689935,9.75526705 17.5689935,9.50527597 L17.5689935,9.2775974 L18.9350649,7.91152597 L17.5689935,8.36688312" id="Fill-39" fill="#181818"></path>
                            </g>
                        </g>
                    </g>
                </g>
            </g>
        </g>
    </g>
</svg>